<svg width="42" height="42" viewBox="0 0 42 42" fill="none" xmlns="http://www.w3.org/2000/svg">
<path d="M21 28.6153C21.2733 28.6153 21.5295 28.5723 21.7686 28.4862C22.0077 28.4015 22.2297 28.2566 22.4347 28.0517L27.7637 22.7227C28.1394 22.347 28.3273 21.8687 28.3273 21.288C28.3273 20.7073 28.1394 20.229 27.7637 19.8533C27.3879 19.4775 26.9097 19.2896 26.3289 19.2896C25.7482 19.2896 25.27 19.4775 24.8942 19.8533L23.0496 21.6979V15.1392C23.0496 14.5585 22.8535 14.0714 22.4613 13.6778C22.0678 13.2857 21.5807 13.0896 21 13.0896C20.4193 13.0896 19.9328 13.2857 19.5407 13.6778C19.1471 14.0714 18.9504 14.5585 18.9504 15.1392V21.6979L17.1057 19.8533C16.73 19.4775 16.2517 19.2896 15.671 19.2896C15.0903 19.2896 14.6121 19.4775 14.2363 19.8533C13.8605 20.229 13.6727 20.7073 13.6727 21.288C13.6727 21.8687 13.8605 22.347 14.2363 22.7227L19.5653 28.0517C19.7702 28.2566 19.9923 28.4015 20.2314 28.4862C20.4705 28.5723 20.7267 28.6153 21 28.6153ZM21 41.784C18.1647 41.784 15.5002 41.2456 13.0065 40.1689C10.5129 39.0936 8.3437 37.6336 6.49906 35.7889C4.65442 33.9443 3.19442 31.7751 2.11907 29.2814C1.04234 26.7878 0.503983 24.1233 0.503983 21.288C0.503983 18.4527 1.04234 15.7882 2.11907 13.2946C3.19442 10.8009 4.65442 8.63171 6.49906 6.78707C8.3437 4.94243 10.5129 3.48175 13.0065 2.40503C15.5002 1.32967 18.1647 0.791992 21 0.791992C23.8353 0.791992 26.4997 1.32967 28.9934 2.40503C31.4871 3.48175 33.6563 4.94243 35.5009 6.78707C37.3455 8.63171 38.8055 10.8009 39.8809 13.2946C40.9576 15.7882 41.496 18.4527 41.496 21.288C41.496 24.1233 40.9576 26.7878 39.8809 29.2814C38.8055 31.7751 37.3455 33.9443 35.5009 35.7889C33.6563 37.6336 31.4871 39.0936 28.9934 40.1689C26.4997 41.2456 23.8353 41.784 21 41.784Z" fill="#F9DC5C"/>
</svg>
