<svg width="21" height="21" viewBox="0 0 21 21" fill="none" xmlns="http://www.w3.org/2000/svg">
<path d="M10.3039 0.516968C4.78392 0.516968 0.303925 4.99697 0.303925 10.517C0.303925 16.037 4.78392 20.517 10.3039 20.517C15.8239 20.517 20.3039 16.037 20.3039 10.517C20.3039 4.99697 15.8239 0.516968 10.3039 0.516968ZM14.9439 7.31697C14.7939 8.89697 14.1439 12.737 13.8139 14.507C13.6739 15.257 13.3939 15.507 13.1339 15.537C12.5539 15.587 12.1139 15.157 11.5539 14.787C10.6739 14.207 10.1739 13.847 9.32393 13.287C8.33393 12.637 8.97392 12.277 9.54392 11.697C9.69392 11.547 12.2539 9.21697 12.3039 9.00697C12.3109 8.97516 12.3099 8.94214 12.3012 8.91077C12.2925 8.8794 12.2763 8.85064 12.2539 8.82697C12.1939 8.77697 12.1139 8.79697 12.0439 8.80697C11.9539 8.82697 10.5539 9.75697 7.82393 11.597C7.42392 11.867 7.06392 12.007 6.74392 11.997C6.38392 11.987 5.70392 11.797 5.19392 11.627C4.56392 11.427 4.07392 11.317 4.11392 10.967C4.13392 10.787 4.38392 10.607 4.85392 10.417C7.77392 9.14697 9.71392 8.30697 10.6839 7.90697C13.4639 6.74697 14.0339 6.54697 14.4139 6.54697C14.4939 6.54697 14.6839 6.56697 14.8039 6.66697C14.9039 6.74697 14.9339 6.85697 14.9439 6.93697C14.9339 6.99697 14.9539 7.17697 14.9439 7.31697Z" fill="#C32F27"/>
</svg>
