<svg width="21" height="17" viewBox="0 0 21 17" fill="none" xmlns="http://www.w3.org/2000/svg">
<path d="M2.30392 16.483C1.75392 16.483 1.28326 16.2874 0.891925 15.896C0.499925 15.504 0.303925 15.033 0.303925 14.483V2.48303C0.303925 1.93303 0.499925 1.46237 0.891925 1.07103C1.28326 0.679032 1.75392 0.483032 2.30392 0.483032H18.3039C18.8539 0.483032 19.3249 0.679032 19.7169 1.07103C20.1083 1.46237 20.3039 1.93303 20.3039 2.48303V14.483C20.3039 15.033 20.1083 15.504 19.7169 15.896C19.3249 16.2874 18.8539 16.483 18.3039 16.483H2.30392ZM10.3039 9.30803C10.3873 9.30803 10.4746 9.29537 10.5659 9.27003C10.6579 9.24537 10.7456 9.20803 10.8289 9.15803L17.9039 4.73303C18.0373 4.6497 18.1373 4.5457 18.2039 4.42103C18.2706 4.2957 18.3039 4.15803 18.3039 4.00803C18.3039 3.6747 18.1623 3.4247 17.8789 3.25803C17.5956 3.09137 17.3039 3.0997 17.0039 3.28303L10.3039 7.48303L3.60392 3.28303C3.30392 3.0997 3.01226 3.09537 2.72892 3.27003C2.44559 3.44537 2.30392 3.69137 2.30392 4.00803C2.30392 4.1747 2.33726 4.32037 2.40392 4.44503C2.47059 4.57037 2.57059 4.66637 2.70392 4.73303L9.77892 9.15803C9.86226 9.20803 9.94992 9.24537 10.0419 9.27003C10.1333 9.29537 10.2206 9.30803 10.3039 9.30803Z" fill="#C32F27"/>
</svg>
